:FULLY-SPECIFIED
:FORCE-ALL-JOINTS-BE-3DOF
:DEGREES
1733
root -5.38152 15.3789 26.339 897.521 -45.4635 191.325
lfemur -37.9706 14.1396 -22.5512
ltibia 66.2505 0 0
lfoot -22.9637 26.7297 0
ltoes -25.7433 0 0
rfemur -42.3773 -11.0935 23.7376
rtibia 81.7228 0 0
rfoot -15.1965 -24.5434 0
rtoes 5.31342 0 0
lowerback 16.7667 -0.701118 -6.28745
upperback 0.41602 -1.9099 3.99086
thorax -8.45687 -0.641658 8.46621
lowerneck 6.83371 -15.9137 -15.4927
upperneck -3.98881 -22.4077 20.9398
head 1.96862 -11.6258 8.06477
lclavicle 1.04073e-13 -2.38944e-15 0
lhumerus -24.5554 -50.3787 101.112
lradius 93.7592 0 0
lwrist 32.0067 0 0
lhand -10.5246 43.772 0
lfingers 7.12502 0 0
lthumb 15.4783 73.17 0
rclavicle 1.04073e-13 -2.38944e-15 0
rhumerus 58.2436 25.3433 -19.8452
rradius 102.366 0 0
rwrist -19.9355 0 0
rhand 6.50551 -29.2994 0
rfingers 7.12502 0 0
rthumb 31.7364 -55.8149 0
1734
root -5.30592 15.3931 26.4033 896.699 -43.7384 192.268
lfemur -37.5301 13.7331 -22.1358
ltibia 66.0774 0 0
lfoot -22.6789 26.7044 0
ltoes -26.0371 0 0
rfemur -42.2232 -11.3958 23.6412
rtibia 81.1342 0 0
rfoot -15.1503 -24.4173 0
rtoes 5.15688 0 0
lowerback 16.7156 -0.56083 -6.2635
upperback 0.395947 -1.72249 3.87915
thorax -8.47289 -0.552544 8.28489
lowerneck 6.67483 -15.8115 -15.4513
upperneck -3.85907 -22.2549 20.8361
head 1.99016 -11.5365 8.02906
lclavicle 1.03179e-13 -3.0541e-15 0
lhumerus -25.7133 -49.562 101.175
lradius 94.0516 0 0
lwrist 32.0976 0 0
lhand -10.5096 43.3673 0
lfingers 7.12502 0 0
lthumb 15.4927 72.7638 0
rclavicle 1.03179e-13 -3.0541e-15 0
rhumerus 57.1946 24.7309 -20.5993
rradius 100.76 0 0
rwrist -19.2919 0 0
rhand 5.78223 -29.4405 0
rfingers 7.12502 0 0
rthumb 31.0427 -56.0358 0
1735
root -5.23032 15.4072 26.4675 895.929 -41.7959 193.179
lfemur -37.0667 13.3039 -21.681
ltibia 65.8911 0 0
lfoot -22.3634 26.6743 0
ltoes -26.3532 0 0
rfemur -42.0426 -11.7343 23.5467
rtibia 80.4942 0 0
rfoot -15.1056 -24.3041 0
rtoes 4.9936 0 0
lowerback 16.6612 -0.408422 -6.23772
upperback 0.373806 -1.51899 3.75764
thorax -8.49112 -0.455755 8.08784
lowerneck 6.50033 -15.6986 -15.4064
upperneck -3.71674 -22.0862 20.7262
head 2.01419 -11.438 7.99112
lclavicle 1.022e-13 -3.78439e-15 0
lhumerus -26.9662 -48.6754 101.242
lradius 94.3686 0 0
lwrist 32.1805 0 0
lhand -10.4898 42.9154 0
lfingers 7.12502 0 0
lthumb 15.5118 72.3101 0
rclavicle 1.022e-13 -3.78439e-15 0
rhumerus 56.0373 24.0708 -21.415
rradius 99.0319 0 0
rwrist -18.5941 0 0
rhand 4.99143 -29.5897 0
rfingers 7.12502 0 0
rthumb 30.2841 -56.2716 0
1736
root -5.15472 15.4213 26.5317 895.225 -39.6203 194.047
lfemur -36.5806 12.852 -21.185
ltibia 65.6911 0 0
lfoot -22.0153 26.6391 0
ltoes -26.6923 0 0
rfemur -41.8333 -12.1112 23.4552
rtibia 79.8004 0 0
rfoot -15.0629 -24.2064 0
rtoes 4.82384 0 0
lowerback 16.6035 -0.243349 -6.21005
upperback 0.349476 -1.29867 3.62588
thorax -8.51173 -0.350945 7.87436
lowerneck 6.30935 -15.5742 -15.3579
upperneck -3.56114 -21.9006 20.6097
head 2.04088 -11.3298 7.95093
lclavicle 1.0113e-13 -4.58396e-15 0
lhumerus -28.3182 -47.7158 101.314
lradius 94.7115 0 0
lwrist 32.2538 0 0
lhand -10.4644 42.4133 0
lfingers 7.12502 0 0
lthumb 15.5361 71.8056 0
rclavicle 1.0113e-13 -4.58396e-15 0
rhumerus 54.7652 23.3613 -22.2946
rradius 97.1791 0 0
rwrist -17.8401 0 0
rhand 4.12962 -29.747 0
rfingers 7.12502 0 0
rthumb 29.4573 -56.5224 0
1737
root -5.07912 15.4354 26.596 894.6 -37.1962 194.86
lfemur -36.0721 12.3776 -20.6455
ltibia 65.4771 0 0
lfoot -21.6327 26.5983 0
ltoes -27.055 0 0
rfemur -41.5929 -12.5292 23.3676
rtibia 79.0506 0 0
rfoot -15.0227 -24.1267 0
rtoes 4.64788 0 0
lowerback 16.5422 -0.0650611 -6.18042
upperback 0.322834 -1.06083 3.4834
thorax -8.53488 -0.237769 7.64372
lowerneck 6.10102 -15.4377 -15.3056
upperneck -3.39158 -21.6974 20.4868
head 2.07039 -11.2115 7.90846
lclavicle 9.99651e-14 -5.45646e-15 0
lhumerus -29.773 -46.6801 101.39
lradius 95.0811 0 0
lwrist 32.3157 0 0
lhand -10.4332 41.8577 0
lfingers 7.12502 0 0
lthumb 15.5662 71.2473 0
rclavicle 9.99651e-14 -5.45646e-15 0
rhumerus 53.3719 22.6007 -23.2407
rradius 95.1972 0 0
rwrist -17.0273 0 0
rhand 3.19334 -29.9124 0
rfingers 7.12502 0 0
rthumb 28.5591 -56.7886 0
1738
root -5.00352 15.4495 26.6602 894.065 -34.508 195.607
lfemur -35.5413 11.8805 -20.0606
ltibia 65.2486 0 0
lfoot -21.2137 26.5514 0
ltoes -27.4422 0 0
rfemur -41.3192 -12.9906 23.2847
rtibia 78.2423 0 0
rfoot -14.9856 -24.0677 0
rtoes 4.46596 0 0
lowerback 16.4775 0.126988 -6.14877
upperback 0.29376 -0.804737 3.32976
thorax -8.56075 -0.115883 7.39522
lowerneck 5.87448 -15.2885 -15.2494
upperneck -3.20737 -21.4754 20.3573
head 2.10289 -11.0824 7.86367
lclavicle 9.8701e-14 -6.40555e-15 0
lhumerus -31.3346 -45.5651 101.471
lradius 95.4787 0 0
lwrist 32.3646 0 0
lhand -10.3954 41.2455 0
lfingers 7.12502 0 0
lthumb 15.6026 70.6319 0
rclavicle 9.8701e-14 -6.40555e-15 0
rhumerus 51.8511 21.7873 -24.2558
rradius 93.0823 0 0
rwrist -16.1535 0 0
rhand 2.17911 -30.086 0
rfingers 7.12502 0 0
rthumb 27.586 -57.0705 0
1739
root -4.92792 15.4636 26.7244 893.635 -31.5402 196.278
lfemur -34.9885 11.3608 -19.4282
ltibia 65.0051 0 0
lfoot -20.7564 26.4981 0
ltoes -27.8545 0 0
rfemur -41.0098 -13.498 23.2076
rtibia 77.3731 0 0
rfoot -14.9521 -24.0318 0
rtoes 4.27835 0 0
lowerback 16.4091 0.333346 -6.11503
upperback 0.262133 -0.529676 3.16449
thorax -8.58951 0.0150597 7.12813
lowerneck 5.62885 -15.1259 -15.1891
upperneck -3.00784 -21.2338 20.2212
head 2.13854 -10.942 7.81655
lclavicle 9.7333e-14 -7.43488e-15 0
lhumerus -33.0069 -44.3678 101.557
lradius 95.9052 0 0
lwrist 32.3988 0 0
lhand -10.3506 40.5736 0
lfingers 7.12502 0 0
lthumb 15.6457 69.9562 0
rclavicle 9.7333e-14 -7.43488e-15 0
rhumerus 50.1965 20.9194 -25.3423
rradius 90.8304 0 0
rwrist -15.2164 0 0
rhand 1.08346 -30.2678 0
rfingers 7.12502 0 0
rthumb 26.5347 -57.3685 0
1740
root -4.85232 15.4778 26.7887 893.32 -28.2772 196.862
lfemur -34.4139 10.8186 -18.7462
ltibia 64.7462 0 0
lfoot -20.2589 26.4379 0
ltoes -28.2927 0 0
rfemur -40.6625 -14.0538 23.1373
rtibia 76.4408 0 0
rfoot -14.9227 -24.0217 0
rtoes 4.08532 0 0
lowerback 16.3371 0.55456 -6.07916
upperback 0.22783 -0.234929 2.98715
thorax -8.62132 0.155403 6.84173
lowerneck 5.36329 -14.9493 -15.1246
upperneck -2.7923 -20.9717 20.0783
head 2.17751 -10.7898 7.76705
lclavicle 9.58564e-14 -8.54809e-15 0
lhumerus -34.7937 -43.085 101.648
lradius 96.3617 0 0
lwrist 32.4165 0 0
lhand -10.2983 39.8388 0
lfingers 7.12502 0 0
lthumb 15.6961 69.2171 0
rclavicle 9.58564e-14 -8.54809e-15 0
rhumerus 48.4015 19.9952 -26.5027
rradius 88.4375 0 0
rwrist -14.2136 0 0
rhand -0.0970795 -30.4577 0
rfingers 7.12502 0 0
rthumb 25.4019 -57.6827 0
1741
root -4.77672 15.4919 26.8529 893.136 -24.7034 197.347
lfemur -33.8177 10.2537 -18.0126
ltibia 64.4715 0 0
lfoot -19.7193 26.3703 0
ltoes -28.7575 0 0
rfemur -40.275 -14.6604 23.0746
rtibia 75.4429 0 0
rfoot -14.8979 -24.0399 0
rtoes 3.88713 0 0
lowerback 16.2615 0.791179 -6.04107
upperback 0.190731 0.0802237 2.79727
thorax -8.65635 0.305491 6.53533
lowerneck 5.07693 -14.758 -15.0557
upperneck -2.56006 -20.6881 19.9287
head 2.21997 -10.6252 7.71515
lclavicle 9.42667e-14 -9.74884e-15 0
lhumerus -36.699 -41.7137 101.743
lradius 96.8494 0 0
lwrist 32.4162 0 0
lhand -10.2379 39.038 0
lfingers 7.12502 0 0
lthumb 15.7542 68.4113 0
rclavicle 9.42667e-14 -9.74884e-15 0
rhumerus 46.4599 19.0131 -27.7395
rradius 85.8995 0 0
rwrist -13.1429 0 0
rhand -1.36599 -30.6559 0
rfingers 7.12502 0 0
rthumb 24.1842 -58.0136 0
1742
root -4.70112 15.506 26.9172 893.093 -20.8034 197.723
lfemur -33.2003 9.66638 -17.2253
ltibia 64.1804 0 0
lfoot -19.1358 26.295 0
ltoes -29.2497 0 0
rfemur -39.8449 -15.3204 23.0205
rtibia 74.3771 0 0
rfoot -14.8783 -24.0891 0
rtoes 3.68404 0 0
lowerback 16.182 1.04375 -6.00071
upperback 0.150715 0.4165 2.5944
thorax -8.69477 0.46567 6.20819
lowerneck 4.76889 -14.5513 -14.9823
upperneck -2.31045 -20.3821 19.7722
head 2.26607 -10.4478 7.66082
lclavicle 9.25593e-14 -1.10408e-14 0
lhumerus -38.7266 -40.2508 101.844
lradius 97.3692 0 0
lwrist 32.3961 0 0
lhand -10.1689 38.168 0
lfingers 7.12502 0 0
lthumb 15.8206 67.5357 0
rclavicle 9.25593e-14 -1.10408e-14 0
rhumerus 44.3653 17.9713 -29.0551
rradius 83.2125 0 0
rwrist -12.002 0 0
rhand -2.72674 -30.8623 0
rfingers 7.12502 0 0
rthumb 22.8784 -58.3614 0
1743
root -4.62553 15.5201 26.9814 893.205 -16.5615 197.978
lfemur -32.5617 9.05649 -16.3822
ltibia 63.8726 0 0
lfoot -18.5063 26.2116 0
ltoes -29.7701 0 0
rfemur -39.3701 -16.0361 22.976
rtibia 73.241 0 0
rfoot -14.8644 -24.1718 0
rtoes 3.47631 0 0
lowerback 16.0988 1.31282 -5.95802
upperback 0.107659 0.77462 2.37809
thorax -8.73675 0.636284 5.85961
lowerneck 4.43832 -14.3287 -14.9042
upperneck -2.04277 -20.0526 19.6088
head 2.31598 -10.257 7.60404
lclavicle 9.07297e-14 -1.24276e-14 0
lhumerus -40.8804 -38.6931 101.95
lradius 97.9222 0 0
lwrist 32.3545 0 0
lhand -10.0908 37.2257 0
lfingers 7.12502 0 0
lthumb 15.8958 66.5872 0
rclavicle 9.07297e-14 -1.24276e-14 0
rhumerus 42.1112 16.8681 -30.452
rradius 80.3726 0 0
rwrist -10.7884 0 0
rhand -4.1828 -31.077 0
rfingers 7.12502 0 0
rthumb 21.481 -58.7265 0
1744
root -4.54993 15.5342 27.0456 893.485 -11.9623 198.101
lfemur -31.9023 8.42408 -15.4813
ltibia 63.5476 0 0
lfoot -17.8291 26.1195 0
ltoes -30.3192 0 0
rfemur -38.8481 -16.8101 22.942
rtibia 72.0323 0 0
rfoot -14.8567 -24.2905 0
rtoes 3.26421 0 0
lowerback 16.0116 1.59893 -5.91293
upperback 0.0614427 1.1553 2.14788
thorax -8.78246 0.817679 5.48886
lowerneck 4.08436 -14.0894 -14.8212
upperneck -1.75634 -19.6989 19.4384
head 2.36988 -10.0522 7.54477
lclavicle 8.87732e-14 -1.39128e-14 0
lhumerus -43.1643 -37.0375 102.061
lradius 98.5095 0 0
lwrist 32.2898 0 0
lhand -10.0031 36.2079 0
lfingers 7.12502 0 0
lthumb 15.9803 65.5624 0
rclavicle 8.87732e-14 -1.39128e-14 0
rhumerus 39.6914 15.7018 -31.9328
rradius 77.3756 0 0
rwrist -9.49997 0 0
rhand -5.73764 -31.3 0
rfingers 7.12502 0 0
rthumb 19.9887 -59.1091 0
1745
root -4.47433 15.5483 27.1099 893.945 -6.99014 198.082
lfemur -31.2222 7.76918 -14.5206
ltibia 63.2049 0 0
lfoot -17.1022 26.0184 0
ltoes -30.898 0 0
rfemur -38.2767 -17.6448 22.9195
rtibia 70.7486 0 0
rfoot -14.8557 -24.4478 0
rtoes 3.04799 0 0
lowerback 15.9205 1.90264 -5.86538
upperback 0.0119446 1.55926 1.90331
thorax -8.83207 1.0102 5.09524
lowerneck 3.70613 -13.8328 -14.7333
upperneck -1.45049 -19.3199 19.2609
head 2.42792 -9.83294 7.48298
lclavicle 8.66853e-14 -1.55003e-14 0
lhumerus -45.5822 -35.281 102.178
lradius 99.1322 0 0
lwrist 32.2002 0 0
lhand -9.90519 35.1115 0
lfingers 7.12502 0 0
lthumb 16.0745 64.4582 0
rclavicle 8.66853e-14 -1.55003e-14 0
rhumerus 37.0993 14.4707 -33.4998
rradius 74.2177 0 0
rwrist -8.13432 0 0
rhand -7.39475 -31.5313 0
rfingers 7.12502 0 0
rthumb 18.3982 -59.5096 0
1746
root -4.39873 15.5625 27.1741 894.597 -1.62953 197.91
lfemur -30.5217 7.0918 -13.498
ltibia 62.8442 0 0
lfoot -16.3238 25.9078 0
ltoes -31.5071 0 0
rfemur -37.6536 -18.5427 22.9094
rtibia 69.3875 0 0
rfoot -14.862 -24.6463 0
rtoes 2.82793 0 0
lowerback 15.8254 2.22449 -5.81531
upperback -0.0409568 1.98723 1.64393
thorax -8.88574 1.21419 4.67803
lowerneck 3.30278 -13.5583 -14.6403
upperneck -1.12451 -18.9147 19.0763
head 2.49026 -9.59869 7.41866
lclavicle 8.44614e-14 -1.71935e-14 0
lhumerus -48.1379 -33.4204 102.3
lradius 99.7913 0 0
lwrist 32.0841 0 0
lhand -9.79661 33.9333 0
lfingers 7.12502 0 0
lthumb 16.1791 63.2715 0
rclavicle 8.44614e-14 -1.71935e-14 0
rhumerus 34.3287 13.1731 -35.1556
rradius 70.8948 0 0
rwrist -6.68915 0 0
rhand -9.15758 -31.7709 0
rfingers 7.12502 0 0
rthumb 16.7061 -59.9283 0
